<svg width="1440" height="420" viewBox="0 0 1440 420" fill="none" xmlns="http://www.w3.org/2000/svg" role="img" aria-labelledby="title desc">
  <title id="title">Grocery Inventory Management System</title>
  <desc id="desc">Project banner for a full-stack grocery inventory platform.</desc>
  <rect width="1440" height="420" rx="28" fill="#111827"/>
  <rect x="0" y="0" width="1440" height="420" rx="28" fill="url(#paint0_linear)"/>
  <circle cx="1180" cy="72" r="170" fill="#FB923C" opacity="0.18"/>
  <circle cx="1300" cy="340" r="220" fill="#FFEDD5" opacity="0.08"/>
  <rect x="80" y="76" width="56" height="56" rx="16" fill="#F97316"/>
  <rect x="99" y="108" width="7" height="16" rx="2" fill="#FFF7ED"/>
  <rect x="111" y="98" width="7" height="26" rx="2" fill="#FFF7ED"/>
  <rect x="123" y="88" width="7" height="36" rx="2" fill="#FFF7ED"/>
  <text x="154" y="113" fill="#FFF7ED" font-family="Segoe UI, Arial, sans-serif" font-size="34" font-weight="800">Inventory</text>
  <text x="80" y="202" fill="#FFF7ED" font-family="Segoe UI, Arial, sans-serif" font-size="58" font-weight="850">Grocery Inventory</text>
  <text x="80" y="268" fill="#FFF7ED" font-family="Segoe UI, Arial, sans-serif" font-size="58" font-weight="850">Management System</text>
  <text x="84" y="322" fill="#FED7AA" font-family="Segoe UI, Arial, sans-serif" font-size="24" font-weight="500">Dashboard, stock control, settings data, API contracts, and operational reporting.</text>
  <g transform="translate(910 106)">
    <rect width="330" height="214" rx="18" fill="#FFF7ED"/>
    <rect x="26" y="28" width="124" height="22" rx="7" fill="#FFEDD5"/>
    <rect x="26" y="70" width="278" height="48" rx="12" fill="#FFFFFF"/>
    <rect x="26" y="136" width="180" height="22" rx="7" fill="#E0F2FE"/>
    <rect x="26" y="170" width="242" height="14" rx="7" fill="#F97316"/>
    <circle cx="276" cy="42" r="18" fill="#F97316"/>
    <circle cx="276" cy="94" r="18" fill="#10B981"/>
  </g>
  <defs>
    <linearGradient id="paint0_linear" x1="0" y1="0" x2="1440" y2="420" gradientUnits="userSpaceOnUse">
      <stop stop-color="#F97316"/>
      <stop offset="0.54" stop-color="#FB5B12"/>
      <stop offset="1" stop-color="#0F172A"/>
    </linearGradient>
  </defs>
</svg>
